General
Unique ID                                : 22473274017164362906375384713274073850 (0x10E831F48D260F064DE745DCAAF822FA)
Complete name                            : Joker.2019.UHD.BluRay.2160p.TrueHD.Atmos.7.1.DV.HEVC.REMUX-FraMeSToR.mkv
Format                                   : Matroska
Format version                           : Version 4
File size                                : 47.4 GiB
Duration                                 : 2 h 1 min
Overall bit rate mode                    : Variable
Overall bit rate                         : 55.7 Mb/s
Movie name                               : Joker (2019) 4K
Encoded date                             : UTC 2020-11-13 14:06:35
Writing application                      : mkvmerge v51.0.0 ('I Wish') 64-bit
Writing library                          : libebml v1.4.0 + libmatroska v1.6.2
/Joker (2019)                            : tt7286456
movie/Joker (2019)                       : movie/475557

Video
ID                                       : 1
ID in the original source medium         : 4113 (0x1011)
Format                                   : HEVC
Format/Info                              : High Efficiency Video Coding
Format profile                           : Main 10@L5.1@High
HDR format                               : Dolby Vision, Version 1.0, dvhe.07.06, BL+EL+RPU, Blu-ray compatible / SMPTE ST 2086, HDR10 compatible
Codec ID                                 : V_MPEGH/ISO/HEVC
Duration                                 : 2 h 1 min
Bit rate                                 : 50.3 Mb/s
Width                                    : 3 840 pixels
Height                                   : 2 160 pixels
Display aspect ratio                     : 16:9
Frame rate mode                          : Constant
Frame rate                               : 23.976 (24000/1001) FPS
Color space                              : YUV
Chroma subsampling                       : 4:2:0 (Type 2)
Bit depth                                : 10 bits
Bits/(Pixel*Frame)                       : 0.253
Stream size                              : 42.8 GiB (90%)
Default                                  : Yes
Forced                                   : No
Color range                              : Limited
Color primaries                          : BT.2020
Transfer characteristics                 : PQ
Matrix coefficients                      : BT.2020 non-constant
Mastering display color primaries        : Display P3
Mastering display luminance              : min: 0.0050 cd/m2, max: 4000 cd/m2
Maximum Content Light Level              : 992 cd/m2
Maximum Frame-Average Light Level        : 120 cd/m2
Original source medium                   : Blu-ray

Audio #1
ID                                       : 2
Format                                   : MLP FBA 16-ch
Format/Info                              : Meridian Lossless Packing FBA with 16-channel presentation
Commercial name                          : Dolby TrueHD with Dolby Atmos
Codec ID                                 : A_TRUEHD
Duration                                 : 2 h 1 min
Bit rate mode                            : Variable
Bit rate                                 : 3 819 kb/s
Maximum bit rate                         : 7 158 kb/s
Channel(s)                               : 8 channels
Channel layout                           : L R C LFE Ls Rs Lb Rb
Sampling rate                            : 48.0 kHz
Frame rate                               : 1 200.000 FPS (40 SPF)
Compression mode                         : Lossless
Stream size                              : 3.25 GiB (7%)
Title                                    : TrueHD Atmos 7.1
Language                                 : English
Default                                  : Yes
Forced                                   : No
Number of dynamic objects                : 15
Bed channel count                        : 1 channel
Bed channel configuration                : LFE

Audio #2
ID                                       : 3
Format                                   : AC-3
Format/Info                              : Audio Coding 3
Commercial name                          : Dolby Digital
Format settings                          : Dolby Surround EX
Codec ID                                 : A_AC3
Duration                                 : 2 h 1 min
Bit rate mode                            : Constant
Bit rate                                 : 640 kb/s
Channel(s)                               : 6 channels
Channel layout                           : L R C LFE Ls Rs
Sampling rate                            : 48.0 kHz
Frame rate                               : 31.250 FPS (1536 SPF)
Compression mode                         : Lossy
Stream size                              : 558 MiB (1%)
Title                                    : AC-3 5.1-EX
Language                                 : English
Service kind                             : Complete Main
Default                                  : No
Forced                                   : No

Audio #3
ID                                       : 4
Format                                   : AAC LC
Format/Info                              : Advanced Audio Codec Low Complexity
Codec ID                                 : A_AAC-2
Duration                                 : 2 h 1 min
Bit rate                                 : 174 kb/s
Channel(s)                               : 2 channels
Channel layout                           : L R
Sampling rate                            : 48.0 kHz
Frame rate                               : 46.875 FPS (1024 SPF)
Compression mode                         : Lossy
Delay relative to video                  : 1 s 668 ms
Stream size                              : 151 MiB (0%)
Title                                    : Commentary by director Todd Phillips
Language                                 : English
Default                                  : No
Forced                                   : No

Text #1
ID                                       : 5
Format                                   : PGS
Codec ID                                 : S_HDMV/PGS
Codec ID/Info                            : Picture based subtitle format used on BDs/HD-DVDs
Duration                                 : 1 h 58 min
Bit rate                                 : 33.8 kb/s
Count of elements                        : 3480
Stream size                              : 28.6 MiB (0%)
Title                                    : English (SDH)
Language                                 : English
Default                                  : No
Forced                                   : No

Text #2
ID                                       : 6
Format                                   : PGS
Codec ID                                 : S_HDMV/PGS
Codec ID/Info                            : Picture based subtitle format used on BDs/HD-DVDs
Duration                                 : 2 h 1 min
Bit rate                                 : 14.0 kb/s
Count of elements                        : 2502
Stream size                              : 12.1 MiB (0%)
Title                                    : Arabic
Language                                 : Arabic
Default                                  : No
Forced                                   : No

Text #3
ID                                       : 7
Format                                   : PGS
Codec ID                                 : S_HDMV/PGS
Codec ID/Info                            : Picture based subtitle format used on BDs/HD-DVDs
Duration                                 : 2 h 1 min
Bit rate                                 : 22.8 kb/s
Count of elements                        : 2438
Stream size                              : 19.8 MiB (0%)
Title                                    : Bulgarian
Language                                 : Bulgarian
Default                                  : No
Forced                                   : No

Text #4
ID                                       : 8
Format                                   : PGS
Codec ID                                 : S_HDMV/PGS
Codec ID/Info                            : Picture based subtitle format used on BDs/HD-DVDs
Duration                                 : 1 h 57 min
Bit rate                                 : 25.0 kb/s
Count of elements                        : 2444
Stream size                              : 21.0 MiB (0%)
Title                                    : Chinese (Cantonese)
Language                                 : Chinese
Default                                  : No
Forced                                   : No

Text #5
ID                                       : 9
Format                                   : PGS
Codec ID                                 : S_HDMV/PGS
Codec ID/Info                            : Picture based subtitle format used on BDs/HD-DVDs
Duration                                 : 2 h 1 min
Bit rate                                 : 27.1 kb/s
Count of elements                        : 2504
Stream size                              : 23.5 MiB (0%)
Title                                    : Chinese (Mandarin Simplified)
Language                                 : Chinese
Default                                  : No
Forced                                   : No

Text #6
ID                                       : 10
Format                                   : PGS
Codec ID                                 : S_HDMV/PGS
Codec ID/Info                            : Picture based subtitle format used on BDs/HD-DVDs
Duration                                 : 2 h 1 min
Bit rate                                 : 23.3 kb/s
Count of elements                        : 2238
Stream size                              : 20.3 MiB (0%)
Title                                    : Chinese (Mandarin Traditional)
Language                                 : Chinese
Default                                  : No
Forced                                   : No

Text #7
ID                                       : 11
Format                                   : PGS
Codec ID                                 : S_HDMV/PGS
Codec ID/Info                            : Picture based subtitle format used on BDs/HD-DVDs
Duration                                 : 2 h 1 min
Bit rate                                 : 24.0 kb/s
Count of elements                        : 2380
Stream size                              : 20.9 MiB (0%)
Title                                    : Croatian
Language                                 : Croatian
Default                                  : No
Forced                                   : No

Text #8
ID                                       : 12
Format                                   : PGS
Codec ID                                 : S_HDMV/PGS
Codec ID/Info                            : Picture based subtitle format used on BDs/HD-DVDs
Duration                                 : 2 h 1 min
Bit rate                                 : 23.3 kb/s
Count of elements                        : 2434
Stream size                              : 20.2 MiB (0%)
Title                                    : Czech
Language                                 : Czech
Default                                  : No
Forced                                   : No

Text #9
ID                                       : 13
Format                                   : PGS
Codec ID                                 : S_HDMV/PGS
Codec ID/Info                            : Picture based subtitle format used on BDs/HD-DVDs
Duration                                 : 2 h 1 min
Bit rate                                 : 22.6 kb/s
Count of elements                        : 1852
Stream size                              : 19.6 MiB (0%)
Title                                    : Danish
Language                                 : Danish
Default                                  : No
Forced                                   : No

Text #10
ID                                       : 14
Format                                   : PGS
Codec ID                                 : S_HDMV/PGS
Codec ID/Info                            : Picture based subtitle format used on BDs/HD-DVDs
Duration                                 : 2 h 1 min
Bit rate                                 : 21.2 kb/s
Count of elements                        : 1586
Stream size                              : 18.4 MiB (0%)
Title                                    : Dutch
Language                                 : Dutch
Default                                  : No
Forced                                   : No

Text #11
ID                                       : 15
Format                                   : PGS
Codec ID                                 : S_HDMV/PGS
Codec ID/Info                            : Picture based subtitle format used on BDs/HD-DVDs
Duration                                 : 2 h 1 min
Bit rate                                 : 24.5 kb/s
Count of elements                        : 2488
Stream size                              : 21.2 MiB (0%)
Title                                    : Finnish
Language                                 : Finnish
Default                                  : No
Forced                                   : No

Text #12
ID                                       : 16
Format                                   : PGS
Codec ID                                 : S_HDMV/PGS
Codec ID/Info                            : Picture based subtitle format used on BDs/HD-DVDs
Duration                                 : 2 h 1 min
Bit rate                                 : 21.2 kb/s
Count of elements                        : 2230
Stream size                              : 18.4 MiB (0%)
Title                                    : French
Language                                 : French
Default                                  : No
Forced                                   : No

Text #13
ID                                       : 17
Format                                   : PGS
Codec ID                                 : S_HDMV/PGS
Codec ID/Info                            : Picture based subtitle format used on BDs/HD-DVDs
Duration                                 : 1 h 58 min
Bit rate                                 : 32.2 kb/s
Count of elements                        : 2540
Stream size                              : 27.4 MiB (0%)
Title                                    : German
Language                                 : German
Default                                  : No
Forced                                   : No

Text #14
ID                                       : 18
Format                                   : PGS
Codec ID                                 : S_HDMV/PGS
Codec ID/Info                            : Picture based subtitle format used on BDs/HD-DVDs
Duration                                 : 2 h 1 min
Bit rate                                 : 24.7 kb/s
Count of elements                        : 2412
Stream size                              : 21.4 MiB (0%)
Title                                    : Greek
Language                                 : Greek
Default                                  : No
Forced                                   : No

Text #15
ID                                       : 19
Format                                   : PGS
Codec ID                                 : S_HDMV/PGS
Codec ID/Info                            : Picture based subtitle format used on BDs/HD-DVDs
Duration                                 : 2 h 1 min
Bit rate                                 : 22.5 kb/s
Count of elements                        : 1892
Stream size                              : 19.5 MiB (0%)
Title                                    : Hungarian
Language                                 : Hungarian
Default                                  : No
Forced                                   : No

Text #16
ID                                       : 20
Format                                   : PGS
Codec ID                                 : S_HDMV/PGS
Codec ID/Info                            : Picture based subtitle format used on BDs/HD-DVDs
Duration                                 : 2 h 1 min
Bit rate                                 : 31.0 kb/s
Count of elements                        : 3386
Stream size                              : 26.9 MiB (0%)
Title                                    : Italian
Language                                 : Italian
Default                                  : No
Forced                                   : No

Text #17
ID                                       : 21
Format                                   : PGS
Codec ID                                 : S_HDMV/PGS
Codec ID/Info                            : Picture based subtitle format used on BDs/HD-DVDs
Duration                                 : 1 h 54 min
Bit rate                                 : 12.2 kb/s
Count of elements                        : 2014
Stream size                              : 9.98 MiB (0%)
Title                                    : Japanese
Language                                 : Japanese
Default                                  : No
Forced                                   : No

Text #18
ID                                       : 22
Format                                   : PGS
Codec ID                                 : S_HDMV/PGS
Codec ID/Info                            : Picture based subtitle format used on BDs/HD-DVDs
Duration                                 : 1 h 57 min
Bit rate                                 : 15.0 kb/s
Count of elements                        : 2336
Stream size                              : 12.6 MiB (0%)
Title                                    : Korean
Language                                 : Korean
Default                                  : No
Forced                                   : No

Text #19
ID                                       : 23
Format                                   : PGS
Codec ID                                 : S_HDMV/PGS
Codec ID/Info                            : Picture based subtitle format used on BDs/HD-DVDs
Duration                                 : 2 h 1 min
Bit rate                                 : 22.4 kb/s
Count of elements                        : 1910
Stream size                              : 19.5 MiB (0%)
Title                                    : Norwegian
Language                                 : Norwegian
Default                                  : No
Forced                                   : No

Text #20
ID                                       : 24
Format                                   : PGS
Codec ID                                 : S_HDMV/PGS
Codec ID/Info                            : Picture based subtitle format used on BDs/HD-DVDs
Duration                                 : 2 h 1 min
Bit rate                                 : 21.3 kb/s
Count of elements                        : 2330
Stream size                              : 18.5 MiB (0%)
Title                                    : Polish
Language                                 : Polish
Default                                  : No
Forced                                   : No

Text #21
ID                                       : 25
Format                                   : PGS
Codec ID                                 : S_HDMV/PGS
Codec ID/Info                            : Picture based subtitle format used on BDs/HD-DVDs
Duration                                 : 1 h 57 min
Bit rate                                 : 24.7 kb/s
Count of elements                        : 2400
Stream size                              : 20.7 MiB (0%)
Title                                    : Portuguese (Brazilian)
Language                                 : Portuguese
Default                                  : No
Forced                                   : No

Text #22
ID                                       : 26
Format                                   : PGS
Codec ID                                 : S_HDMV/PGS
Codec ID/Info                            : Picture based subtitle format used on BDs/HD-DVDs
Duration                                 : 2 h 1 min
Bit rate                                 : 24.6 kb/s
Count of elements                        : 2414
Stream size                              : 21.3 MiB (0%)
Title                                    : Portuguese (Iberian)
Language                                 : Portuguese
Default                                  : No
Forced                                   : No

Text #23
ID                                       : 27
Format                                   : PGS
Codec ID                                 : S_HDMV/PGS
Codec ID/Info                            : Picture based subtitle format used on BDs/HD-DVDs
Duration                                 : 2 h 1 min
Bit rate                                 : 23.4 kb/s
Count of elements                        : 2186
Stream size                              : 20.3 MiB (0%)
Title                                    : Romanian
Language                                 : Romanian
Default                                  : No
Forced                                   : No

Text #24
ID                                       : 28
Format                                   : PGS
Codec ID                                 : S_HDMV/PGS
Codec ID/Info                            : Picture based subtitle format used on BDs/HD-DVDs
Duration                                 : 1 h 57 min
Bit rate                                 : 27.8 kb/s
Count of elements                        : 2216
Stream size                              : 23.4 MiB (0%)
Title                                    : Russian
Language                                 : Russian
Default                                  : No
Forced                                   : No

Text #25
ID                                       : 29
Format                                   : PGS
Codec ID                                 : S_HDMV/PGS
Codec ID/Info                            : Picture based subtitle format used on BDs/HD-DVDs
Duration                                 : 2 h 1 min
Bit rate                                 : 21.5 kb/s
Count of elements                        : 2008
Stream size                              : 18.7 MiB (0%)
Title                                    : Slovenian
Language                                 : Slovenian
Default                                  : No
Forced                                   : No

Text #26
ID                                       : 30
Format                                   : PGS
Codec ID                                 : S_HDMV/PGS
Codec ID/Info                            : Picture based subtitle format used on BDs/HD-DVDs
Duration                                 : 2 h 1 min
Bit rate                                 : 23.9 kb/s
Count of elements                        : 2358
Stream size                              : 20.8 MiB (0%)
Title                                    : Spanish (Castilian)
Language                                 : Spanish
Default                                  : No
Forced                                   : No

Text #27
ID                                       : 31
Format                                   : PGS
Codec ID                                 : S_HDMV/PGS
Codec ID/Info                            : Picture based subtitle format used on BDs/HD-DVDs
Duration                                 : 1 h 57 min
Bit rate                                 : 25.6 kb/s
Count of elements                        : 2384
Stream size                              : 21.5 MiB (0%)
Title                                    : Spanish (Latin American)
Language                                 : Spanish
Default                                  : No
Forced                                   : No

Text #28
ID                                       : 32
Format                                   : PGS
Codec ID                                 : S_HDMV/PGS
Codec ID/Info                            : Picture based subtitle format used on BDs/HD-DVDs
Duration                                 : 2 h 1 min
Bit rate                                 : 23.8 kb/s
Count of elements                        : 2436
Stream size                              : 20.7 MiB (0%)
Title                                    : Swedish
Language                                 : Swedish
Default                                  : No
Forced                                   : No

Text #29
ID                                       : 33
Format                                   : PGS
Codec ID                                 : S_HDMV/PGS
Codec ID/Info                            : Picture based subtitle format used on BDs/HD-DVDs
Duration                                 : 2 h 1 min
Bit rate                                 : 24.5 kb/s
Count of elements                        : 2434
Stream size                              : 21.3 MiB (0%)
Title                                    : Thai
Language                                 : Thai
Default                                  : No
Forced                                   : No

Text #30
ID                                       : 34
Format                                   : PGS
Codec ID                                 : S_HDMV/PGS
Codec ID/Info                            : Picture based subtitle format used on BDs/HD-DVDs
Duration                                 : 2 h 1 min
Bit rate                                 : 24.9 kb/s
Count of elements                        : 2414
Stream size                              : 21.6 MiB (0%)
Title                                    : Turkish
Language                                 : Turkish
Default                                  : No
Forced                                   : No

Menu
00:00:00.000                             : en:Chapter 1
00:10:28.794                             : en:Chapter 2
00:21:01.301                             : en:Chapter 3
00:28:44.973                             : en:Chapter 4
00:38:14.458                             : en:Chapter 5
00:46:21.528                             : en:Chapter 6
00:56:19.292                             : en:Chapter 7
01:04:41.127                             : en:Chapter 8
01:15:41.495                             : en:Chapter 9
01:26:16.045                             : en:Chapter 10
01:37:02.608                             : en:Chapter 11
01:45:50.385                             : en:Chapter 12
01:55:44.646                             : en:Chapter 13
